#N canvas 827 239 527 327 12;
#X obj 279 398 adc~;
#N canvas 0 22 450 278 (subpatch) 0;
#X array audio-recorder 100 float 0;
#X coords 0 1 99 -1 342 202 1;
#X restore 199 59 graph;
#X msg 455 340 stop;
#X obj 455 480 writesf~ 2;
#X obj 261 282 bng 25 250 50 0 empty empty empty 17 7 0 10 #e45552 #fafafa #ffffff;
#X obj 455 282 bng 25 250 50 0 empty empty empty 17 7 0 10 #262626 #4d4d4d #4d4d4d;
#X obj 199 440 loadbang;
#X obj 279 522 tabwrite~ audio-recorder;
#X msg 261 340 open out/\$1.wav \, start;
#X obj 279 438 *~ 1;
#X obj 199 480 metro 10;
#X obj 261 312 random 1e+06, f 14;
#X connect 0 0 9 0;
#X connect 2 0 3 0;
#X connect 4 0 11 0;
#X connect 5 0 2 0;
#X connect 6 0 10 0;
#X connect 8 0 3 0;
#X connect 9 0 7 0;
#X connect 9 0 3 0;
#X connect 9 0 3 1;
#X connect 10 0 7 0;
#X connect 11 0 8 0;
