#N canvas 827 239 527 327 12;
#X obj 239 279 adc~;
#N canvas 0 22 450 278 (subpatch) 0;
#X array graph 100 float 0;
#X coords 0 1 99 -1 342 202 1;
#X restore 199 59 graph;
#X msg 459 319 stop;
#X obj 319 379 writesf~ 2;
#X obj 239 319 *~ 2;
#X obj 319 279 bng 25 250 50 0 empty empty empty 17 7 0 10 #e45552 #fafafa #ffffff;
#X obj 359 279 bng 25 250 50 0 empty empty empty 17 7 0 10 #262626 #4d4d4d #4d4d4d;
#X obj 239 379 loadbang;
#X obj 239 419 tabwrite~ graph;
#X msg 319 319 open rec.wav \, start;
#X obj 239 399 metro 100;
#X connect 0 0 4 0 empty;
#X connect 2 0 3 0 empty;
#X connect 4 0 8 0 empty;
#X connect 4 0 3 0 empty;
#X connect 4 0 3 1 empty;
#X connect 5 0 9 0 empty;
#X connect 6 0 2 0 empty;
#X connect 7 0 10 0 empty;
#X connect 9 0 3 0 empty;
#X connect 10 0 8 0 empty;
