#N canvas 827 239 527 327 12;
#X obj 319 419 adc~;
#X obj 199 359 metro 100;
#N canvas 0 22 450 278 (subpatch) 0;
#X array audio-recorder 100 float 0;
#X coords 0 1 99 -1 342 202 1;
#X restore 199 59 graph;
#X msg 499 339 stop;
#X obj 466 459 writesf~ 2;
#X obj 319 459 *~ 2;
#X obj 199 279 bng 25 250 50 0 empty empty empty 17 7 0 10 #e45552 #fafafa #ffffff;
#X obj 239 279 bng 25 250 50 0 empty empty empty 17 7 0 10 #262626 #4d4d4d #4d4d4d;
#X obj 199 339 loadbang;
#X obj 199 379 tabwrite~ audio-recorder;
#X msg 299 339 open recording.wav \, start;
#X connect 0 0 5 0 empty;
#X connect 1 0 9 0 empty;
#X connect 3 0 4 0 empty;
#X connect 5 0 4 0 empty;
#X connect 5 0 4 1 empty;
#X connect 5 0 9 0 empty;
#X connect 6 0 10 0 empty;
#X connect 7 0 3 0 empty;
#X connect 8 0 1 0 empty;
#X connect 10 0 4 0 empty;
